<mxfile host="app.diagrams.net" modified="2024-07-05T15:12:05.550Z" agent="Mozilla/5.0 (Windows NT 10.0; Win64; x64; rv:127.0) Gecko/20100101 Firefox/127.0" etag="r2P2aB51xONEcQJOq8uV" version="24.6.4" type="github">
  <diagram name="Page-1" id="58cdce13-f638-feb5-8d6f-7d28b1aa9fa0">
    <mxGraphModel dx="5300" dy="2540" grid="1" gridSize="10" guides="1" tooltips="1" connect="1" arrows="1" fold="1" page="1" pageScale="1" pageWidth="1100" pageHeight="850" background="none" math="0" shadow="0">
      <root>
        <mxCell id="0" />
        <mxCell id="1" parent="0" />
        <mxCell id="3ijustOirOH9VtK2G7QW-2" value="" style="ellipse;html=1;shape=startState;fillColor=#000000;strokeColor=#ff0000;" parent="1" vertex="1">
          <mxGeometry x="106" y="7" width="30" height="30" as="geometry" />
        </mxCell>
        <mxCell id="3ijustOirOH9VtK2G7QW-3" value="" style="edgeStyle=orthogonalEdgeStyle;html=1;verticalAlign=bottom;endArrow=open;endSize=8;strokeColor=#ff0000;rounded=0;" parent="1" source="3ijustOirOH9VtK2G7QW-2" target="3ijustOirOH9VtK2G7QW-7" edge="1">
          <mxGeometry relative="1" as="geometry">
            <mxPoint x="131" y="49" as="targetPoint" />
          </mxGeometry>
        </mxCell>
        <mxCell id="3ijustOirOH9VtK2G7QW-4" value="SMTP server request?" style="rhombus;whiteSpace=wrap;html=1;fontColor=#000000;fillColor=#ffffc0;strokeColor=#ff0000;" parent="1" vertex="1">
          <mxGeometry x="46" y="153" width="150" height="70" as="geometry" />
        </mxCell>
        <mxCell id="3ijustOirOH9VtK2G7QW-5" value="no" style="edgeStyle=orthogonalEdgeStyle;html=1;align=left;verticalAlign=bottom;endArrow=open;endSize=8;strokeColor=#ff0000;rounded=0;entryX=0;entryY=0.5;entryDx=0;entryDy=0;exitX=1;exitY=0.5;exitDx=0;exitDy=0;" parent="1" source="3ijustOirOH9VtK2G7QW-4" target="3ijustOirOH9VtK2G7QW-12" edge="1">
          <mxGeometry x="-0.7333" y="1" relative="1" as="geometry">
            <mxPoint x="296" y="337" as="targetPoint" />
            <mxPoint as="offset" />
          </mxGeometry>
        </mxCell>
        <mxCell id="3ijustOirOH9VtK2G7QW-6" value="yes" style="edgeStyle=orthogonalEdgeStyle;html=1;align=left;verticalAlign=top;endArrow=open;endSize=8;strokeColor=#ff0000;rounded=0;entryX=0.5;entryY=0;entryDx=0;entryDy=0;exitX=0.5;exitY=1;exitDx=0;exitDy=0;" parent="1" source="3ijustOirOH9VtK2G7QW-4" target="3ijustOirOH9VtK2G7QW-17" edge="1">
          <mxGeometry x="-1" relative="1" as="geometry">
            <mxPoint x="156" y="373" as="targetPoint" />
          </mxGeometry>
        </mxCell>
        <mxCell id="3ijustOirOH9VtK2G7QW-7" value="Await requests" style="rounded=1;whiteSpace=wrap;html=1;arcSize=40;fontColor=#000000;fillColor=#ffffc0;strokeColor=#ff0000;" parent="1" vertex="1">
          <mxGeometry x="61" y="59" width="120" height="40" as="geometry" />
        </mxCell>
        <mxCell id="3ijustOirOH9VtK2G7QW-8" value="" style="edgeStyle=orthogonalEdgeStyle;html=1;verticalAlign=bottom;endArrow=open;endSize=8;strokeColor=#ff0000;rounded=0;entryX=0.5;entryY=0;entryDx=0;entryDy=0;" parent="1" source="3ijustOirOH9VtK2G7QW-7" target="3ijustOirOH9VtK2G7QW-4" edge="1">
          <mxGeometry relative="1" as="geometry">
            <mxPoint x="406" y="287" as="targetPoint" />
          </mxGeometry>
        </mxCell>
        <mxCell id="3ijustOirOH9VtK2G7QW-9" value="Valid authorisation token provided?" style="rhombus;whiteSpace=wrap;html=1;fontColor=#000000;fillColor=#ffffc0;strokeColor=#ff0000;" parent="1" vertex="1">
          <mxGeometry x="638" y="520" width="144" height="60" as="geometry" />
        </mxCell>
        <mxCell id="3ijustOirOH9VtK2G7QW-10" value="no" style="edgeStyle=orthogonalEdgeStyle;html=1;align=left;verticalAlign=bottom;endArrow=open;endSize=8;strokeColor=#ff0000;rounded=0;entryX=0.5;entryY=0;entryDx=0;entryDy=0;" parent="1" source="3ijustOirOH9VtK2G7QW-9" target="3ijustOirOH9VtK2G7QW-31" edge="1">
          <mxGeometry x="-0.6" relative="1" as="geometry">
            <mxPoint x="340" y="657" as="targetPoint" />
            <Array as="points">
              <mxPoint x="438" y="550" />
            </Array>
            <mxPoint as="offset" />
          </mxGeometry>
        </mxCell>
        <mxCell id="3ijustOirOH9VtK2G7QW-11" value="yes" style="edgeStyle=orthogonalEdgeStyle;html=1;align=left;verticalAlign=top;endArrow=open;endSize=8;strokeColor=#ff0000;rounded=0;entryX=0.5;entryY=0;entryDx=0;entryDy=0;" parent="1" source="3ijustOirOH9VtK2G7QW-9" target="3ijustOirOH9VtK2G7QW-43" edge="1">
          <mxGeometry x="-1" relative="1" as="geometry">
            <mxPoint x="244" y="865" as="targetPoint" />
          </mxGeometry>
        </mxCell>
        <mxCell id="3ijustOirOH9VtK2G7QW-12" value="API request?" style="rhombus;whiteSpace=wrap;html=1;fontColor=#000000;fillColor=#ffffc0;strokeColor=#ff0000;" parent="1" vertex="1">
          <mxGeometry x="301" y="168" width="130" height="40" as="geometry" />
        </mxCell>
        <mxCell id="3ijustOirOH9VtK2G7QW-13" value="no" style="edgeStyle=orthogonalEdgeStyle;html=1;align=left;verticalAlign=bottom;endArrow=open;endSize=8;strokeColor=#ff0000;rounded=0;entryX=1;entryY=0.5;entryDx=0;entryDy=0;exitX=0.5;exitY=0;exitDx=0;exitDy=0;" parent="1" source="3ijustOirOH9VtK2G7QW-12" target="3ijustOirOH9VtK2G7QW-7" edge="1">
          <mxGeometry x="-1" relative="1" as="geometry">
            <mxPoint x="531" y="232" as="targetPoint" />
          </mxGeometry>
        </mxCell>
        <mxCell id="3ijustOirOH9VtK2G7QW-14" value="yes" style="edgeStyle=orthogonalEdgeStyle;html=1;align=left;verticalAlign=top;endArrow=open;endSize=8;strokeColor=#ff0000;rounded=0;entryX=0.75;entryY=0.5;entryDx=0;entryDy=0;entryPerimeter=0;" parent="1" source="3ijustOirOH9VtK2G7QW-12" target="3ijustOirOH9VtK2G7QW-23" edge="1">
          <mxGeometry x="-1" relative="1" as="geometry">
            <mxPoint x="366" y="260" as="targetPoint" />
          </mxGeometry>
        </mxCell>
        <mxCell id="3ijustOirOH9VtK2G7QW-17" value="Render" style="swimlane;fontStyle=1;align=center;verticalAlign=middle;childLayout=stackLayout;horizontal=1;startSize=30;horizontalStack=0;resizeParent=0;resizeLast=1;container=0;fontColor=#000000;collapsible=0;rounded=1;arcSize=30;strokeColor=#ff0000;fillColor=#ffffc0;swimlaneFillColor=#ffffc0;dropTarget=0;" parent="1" vertex="1">
          <mxGeometry x="41" y="260" width="160" height="60" as="geometry" />
        </mxCell>
        <mxCell id="3ijustOirOH9VtK2G7QW-18" value="True" style="text;html=1;strokeColor=none;fillColor=none;align=center;verticalAlign=middle;spacingLeft=4;spacingRight=4;whiteSpace=wrap;overflow=hidden;rotatable=0;fontColor=#000000;" parent="3ijustOirOH9VtK2G7QW-17" vertex="1">
          <mxGeometry y="30" width="160" height="30" as="geometry" />
        </mxCell>
        <mxCell id="3ijustOirOH9VtK2G7QW-19" value="" style="edgeStyle=orthogonalEdgeStyle;html=1;verticalAlign=bottom;endArrow=open;endSize=8;strokeColor=#ff0000;rounded=0;entryX=0.25;entryY=0.5;entryDx=0;entryDy=0;entryPerimeter=0;" parent="1" source="3ijustOirOH9VtK2G7QW-17" target="3ijustOirOH9VtK2G7QW-23" edge="1">
          <mxGeometry relative="1" as="geometry">
            <mxPoint x="121" y="372" as="targetPoint" />
          </mxGeometry>
        </mxCell>
        <mxCell id="3ijustOirOH9VtK2G7QW-23" value="" style="shape=line;html=1;strokeWidth=6;strokeColor=#ff0000;rotation=-90;" parent="1" vertex="1">
          <mxGeometry x="380" y="285" width="410" height="10" as="geometry" />
        </mxCell>
        <mxCell id="3ijustOirOH9VtK2G7QW-24" value="" style="edgeStyle=orthogonalEdgeStyle;html=1;verticalAlign=bottom;endArrow=open;endSize=8;strokeColor=#ff0000;rounded=0;entryX=0.5;entryY=0;entryDx=0;entryDy=0;" parent="1" source="3ijustOirOH9VtK2G7QW-23" target="3ijustOirOH9VtK2G7QW-45" edge="1">
          <mxGeometry relative="1" as="geometry">
            <mxPoint x="250" y="569" as="targetPoint" />
          </mxGeometry>
        </mxCell>
        <mxCell id="3ijustOirOH9VtK2G7QW-25" value="403" style="ellipse;html=1;shape=endState;fillColor=#000000;strokeColor=#ff0000;" parent="1" vertex="1">
          <mxGeometry x="845" y="605" width="30" height="30" as="geometry" />
        </mxCell>
        <mxCell id="3ijustOirOH9VtK2G7QW-31" value="Status code" style="swimlane;fontStyle=1;align=center;verticalAlign=middle;childLayout=stackLayout;horizontal=1;startSize=30;horizontalStack=0;resizeParent=0;resizeLast=1;container=0;fontColor=#000000;collapsible=0;rounded=1;arcSize=30;strokeColor=#ff0000;fillColor=#ffffc0;swimlaneFillColor=#ffffc0;dropTarget=0;" parent="1" vertex="1">
          <mxGeometry x="358" y="590" width="160" height="60" as="geometry" />
        </mxCell>
        <mxCell id="3ijustOirOH9VtK2G7QW-32" value="403" style="text;html=1;strokeColor=none;fillColor=none;align=center;verticalAlign=middle;spacingLeft=4;spacingRight=4;whiteSpace=wrap;overflow=hidden;rotatable=0;fontColor=#000000;" parent="3ijustOirOH9VtK2G7QW-31" vertex="1">
          <mxGeometry y="30" width="160" height="30" as="geometry" />
        </mxCell>
        <mxCell id="3ijustOirOH9VtK2G7QW-33" value="" style="edgeStyle=orthogonalEdgeStyle;html=1;verticalAlign=bottom;endArrow=open;endSize=8;strokeColor=#ff0000;rounded=0;entryX=0;entryY=0.5;entryDx=0;entryDy=0;" parent="1" source="3ijustOirOH9VtK2G7QW-31" target="3ijustOirOH9VtK2G7QW-25" edge="1">
          <mxGeometry relative="1" as="geometry">
            <mxPoint x="410" y="747" as="targetPoint" />
          </mxGeometry>
        </mxCell>
        <mxCell id="3ijustOirOH9VtK2G7QW-34" value="Document type" style="swimlane;fontStyle=1;align=center;verticalAlign=middle;childLayout=stackLayout;horizontal=1;startSize=30;horizontalStack=0;resizeParent=0;resizeLast=1;container=0;fontColor=#000000;collapsible=0;rounded=1;arcSize=30;strokeColor=#ff0000;fillColor=#ffffc0;swimlaneFillColor=#ffffc0;dropTarget=0;" parent="1" vertex="1">
          <mxGeometry x="755" y="280" width="160" height="60" as="geometry" />
        </mxCell>
        <mxCell id="3ijustOirOH9VtK2G7QW-35" value="&lt;div&gt;Document type&lt;/div&gt;&lt;div&gt;Visitor ID&lt;br&gt;&lt;/div&gt;" style="text;html=1;strokeColor=none;fillColor=none;align=center;verticalAlign=middle;spacingLeft=4;spacingRight=4;whiteSpace=wrap;overflow=hidden;rotatable=0;fontColor=#000000;" parent="3ijustOirOH9VtK2G7QW-34" vertex="1">
          <mxGeometry y="30" width="160" height="30" as="geometry" />
        </mxCell>
        <mxCell id="3ijustOirOH9VtK2G7QW-36" value="" style="edgeStyle=orthogonalEdgeStyle;html=1;verticalAlign=bottom;endArrow=open;endSize=8;strokeColor=#ff0000;rounded=0;entryX=0.5;entryY=0;entryDx=0;entryDy=0;" parent="1" source="3ijustOirOH9VtK2G7QW-34" target="3ijustOirOH9VtK2G7QW-37" edge="1">
          <mxGeometry relative="1" as="geometry">
            <mxPoint x="380" y="632" as="targetPoint" />
          </mxGeometry>
        </mxCell>
        <mxCell id="3ijustOirOH9VtK2G7QW-37" value="Document type exists?" style="rhombus;whiteSpace=wrap;html=1;fontColor=#000000;fillColor=#ffffc0;strokeColor=#ff0000;" parent="1" vertex="1">
          <mxGeometry x="650" y="400" width="120" height="60" as="geometry" />
        </mxCell>
        <mxCell id="3ijustOirOH9VtK2G7QW-38" value="no" style="edgeStyle=orthogonalEdgeStyle;html=1;align=left;verticalAlign=bottom;endArrow=open;endSize=8;strokeColor=#ff0000;rounded=0;entryX=0;entryY=0.5;entryDx=0;entryDy=0;" parent="1" source="3ijustOirOH9VtK2G7QW-37" target="3ijustOirOH9VtK2G7QW-40" edge="1">
          <mxGeometry x="-1" relative="1" as="geometry">
            <mxPoint x="460" y="522" as="targetPoint" />
          </mxGeometry>
        </mxCell>
        <mxCell id="3ijustOirOH9VtK2G7QW-39" value="yes" style="edgeStyle=orthogonalEdgeStyle;html=1;align=left;verticalAlign=top;endArrow=open;endSize=8;strokeColor=#ff0000;rounded=0;entryX=0.5;entryY=0;entryDx=0;entryDy=0;" parent="1" source="3ijustOirOH9VtK2G7QW-37" target="3ijustOirOH9VtK2G7QW-9" edge="1">
          <mxGeometry x="-1" relative="1" as="geometry">
            <mxPoint x="550" y="612" as="targetPoint" />
          </mxGeometry>
        </mxCell>
        <mxCell id="3ijustOirOH9VtK2G7QW-40" value="Status code" style="swimlane;fontStyle=1;align=center;verticalAlign=middle;childLayout=stackLayout;horizontal=1;startSize=30;horizontalStack=0;resizeParent=0;resizeLast=1;container=0;fontColor=#000000;collapsible=0;rounded=1;arcSize=30;strokeColor=#ff0000;fillColor=#ffffc0;swimlaneFillColor=#ffffc0;dropTarget=0;" parent="1" vertex="1">
          <mxGeometry x="1040" y="347" width="160" height="60" as="geometry" />
        </mxCell>
        <mxCell id="3ijustOirOH9VtK2G7QW-41" value="404" style="text;html=1;strokeColor=none;fillColor=none;align=center;verticalAlign=middle;spacingLeft=4;spacingRight=4;whiteSpace=wrap;overflow=hidden;rotatable=0;fontColor=#000000;" parent="3ijustOirOH9VtK2G7QW-40" vertex="1">
          <mxGeometry y="30" width="160" height="30" as="geometry" />
        </mxCell>
        <mxCell id="3ijustOirOH9VtK2G7QW-42" value="" style="edgeStyle=orthogonalEdgeStyle;html=1;verticalAlign=bottom;endArrow=open;endSize=8;strokeColor=#ff0000;rounded=0;entryX=0.5;entryY=0;entryDx=0;entryDy=0;exitX=0.5;exitY=1;exitDx=0;exitDy=0;" parent="1" source="3ijustOirOH9VtK2G7QW-41" target="3ijustOirOH9VtK2G7QW-25" edge="1">
          <mxGeometry relative="1" as="geometry">
            <mxPoint x="730" y="512" as="targetPoint" />
          </mxGeometry>
        </mxCell>
        <mxCell id="3ijustOirOH9VtK2G7QW-43" value="Retrieve caller details" style="rounded=1;whiteSpace=wrap;html=1;arcSize=40;fontColor=#000000;fillColor=#ffffc0;strokeColor=#ff0000;" parent="1" vertex="1">
          <mxGeometry x="1170" y="590" width="120" height="40" as="geometry" />
        </mxCell>
        <mxCell id="3ijustOirOH9VtK2G7QW-44" value="" style="edgeStyle=orthogonalEdgeStyle;html=1;verticalAlign=bottom;endArrow=open;endSize=8;strokeColor=#ff0000;rounded=0;" parent="1" source="3ijustOirOH9VtK2G7QW-43" target="3ijustOirOH9VtK2G7QW-48" edge="1">
          <mxGeometry relative="1" as="geometry">
            <mxPoint x="366" y="977" as="targetPoint" />
          </mxGeometry>
        </mxCell>
        <mxCell id="3ijustOirOH9VtK2G7QW-45" value="Valid request format?" style="rhombus;whiteSpace=wrap;html=1;fontColor=#000000;fillColor=#ffffc0;strokeColor=#ff0000;" parent="1" vertex="1">
          <mxGeometry x="750" y="168" width="170" height="40" as="geometry" />
        </mxCell>
        <mxCell id="3ijustOirOH9VtK2G7QW-46" value="no" style="edgeStyle=orthogonalEdgeStyle;html=1;align=left;verticalAlign=bottom;endArrow=open;endSize=8;strokeColor=#ff0000;rounded=0;" parent="1" source="3ijustOirOH9VtK2G7QW-45" target="3ijustOirOH9VtK2G7QW-40" edge="1">
          <mxGeometry x="-1" relative="1" as="geometry">
            <mxPoint x="740" y="467" as="targetPoint" />
          </mxGeometry>
        </mxCell>
        <mxCell id="3ijustOirOH9VtK2G7QW-47" value="yes" style="edgeStyle=orthogonalEdgeStyle;html=1;align=left;verticalAlign=top;endArrow=open;endSize=8;strokeColor=#ff0000;rounded=0;entryX=0.5;entryY=0;entryDx=0;entryDy=0;" parent="1" source="3ijustOirOH9VtK2G7QW-45" target="3ijustOirOH9VtK2G7QW-34" edge="1">
          <mxGeometry x="-1" relative="1" as="geometry">
            <mxPoint x="600" y="547" as="targetPoint" />
          </mxGeometry>
        </mxCell>
        <mxCell id="3ijustOirOH9VtK2G7QW-48" value="Caller details have administrator or office authorisation?" style="rhombus;whiteSpace=wrap;html=1;fontColor=#000000;fillColor=#ffffc0;strokeColor=#ff0000;" parent="1" vertex="1">
          <mxGeometry x="1145" y="670" width="170" height="80" as="geometry" />
        </mxCell>
        <mxCell id="3ijustOirOH9VtK2G7QW-49" value="no" style="edgeStyle=orthogonalEdgeStyle;html=1;align=left;verticalAlign=bottom;endArrow=open;endSize=8;strokeColor=#ff0000;rounded=0;entryX=0.5;entryY=1;entryDx=0;entryDy=0;" parent="1" source="3ijustOirOH9VtK2G7QW-48" target="3ijustOirOH9VtK2G7QW-32" edge="1">
          <mxGeometry x="-1" relative="1" as="geometry">
            <mxPoint x="370" y="1047" as="targetPoint" />
          </mxGeometry>
        </mxCell>
        <mxCell id="3ijustOirOH9VtK2G7QW-50" value="yes" style="edgeStyle=orthogonalEdgeStyle;html=1;align=left;verticalAlign=top;endArrow=open;endSize=8;strokeColor=#ff0000;rounded=0;entryX=0.5;entryY=0;entryDx=0;entryDy=0;" parent="1" source="3ijustOirOH9VtK2G7QW-48" target="3ijustOirOH9VtK2G7QW-51" edge="1">
          <mxGeometry x="-1" relative="1" as="geometry">
            <mxPoint x="340" y="1127" as="targetPoint" />
          </mxGeometry>
        </mxCell>
        <mxCell id="3ijustOirOH9VtK2G7QW-51" value="Retrieve document template" style="swimlane;fontStyle=1;align=center;verticalAlign=middle;childLayout=stackLayout;horizontal=1;startSize=30;horizontalStack=0;resizeParent=0;resizeLast=1;container=0;fontColor=#000000;collapsible=0;rounded=1;arcSize=30;strokeColor=#ff0000;fillColor=#ffffc0;swimlaneFillColor=#ffffc0;dropTarget=0;" parent="1" vertex="1">
          <mxGeometry x="1125" y="815" width="210" height="60" as="geometry" />
        </mxCell>
        <mxCell id="3ijustOirOH9VtK2G7QW-52" value="Document type" style="text;html=1;strokeColor=none;fillColor=none;align=center;verticalAlign=middle;spacingLeft=4;spacingRight=4;whiteSpace=wrap;overflow=hidden;rotatable=0;fontColor=#000000;" parent="3ijustOirOH9VtK2G7QW-51" vertex="1">
          <mxGeometry y="30" width="210" height="30" as="geometry" />
        </mxCell>
        <mxCell id="3ijustOirOH9VtK2G7QW-53" value="" style="edgeStyle=orthogonalEdgeStyle;html=1;verticalAlign=bottom;endArrow=open;endSize=8;strokeColor=#ff0000;rounded=0;entryX=1;entryY=0.5;entryDx=0;entryDy=0;" parent="1" source="3ijustOirOH9VtK2G7QW-51" target="3ijustOirOH9VtK2G7QW-66" edge="1">
          <mxGeometry relative="1" as="geometry">
            <mxPoint x="261" y="1227" as="targetPoint" />
          </mxGeometry>
        </mxCell>
        <mxCell id="3ijustOirOH9VtK2G7QW-54" value="Retrieve values for each placeholder from database" style="rounded=1;whiteSpace=wrap;html=1;arcSize=40;fontColor=#000000;fillColor=#ffffc0;strokeColor=#ff0000;" parent="1" vertex="1">
          <mxGeometry x="930" y="1145" width="160" height="50" as="geometry" />
        </mxCell>
        <mxCell id="3ijustOirOH9VtK2G7QW-55" value="" style="edgeStyle=orthogonalEdgeStyle;html=1;verticalAlign=bottom;endArrow=open;endSize=8;strokeColor=#ff0000;rounded=0;" parent="1" source="3ijustOirOH9VtK2G7QW-54" target="3ijustOirOH9VtK2G7QW-58" edge="1">
          <mxGeometry relative="1" as="geometry">
            <mxPoint x="1340" y="1636" as="targetPoint" />
          </mxGeometry>
        </mxCell>
        <mxCell id="3ijustOirOH9VtK2G7QW-56" value="Substitute placeholder values into template" style="rounded=1;whiteSpace=wrap;html=1;arcSize=40;fontColor=#000000;fillColor=#ffffc0;strokeColor=#ff0000;" parent="1" vertex="1">
          <mxGeometry x="1170" y="1290" width="120" height="40" as="geometry" />
        </mxCell>
        <mxCell id="3ijustOirOH9VtK2G7QW-57" value="" style="edgeStyle=orthogonalEdgeStyle;html=1;verticalAlign=bottom;endArrow=open;endSize=8;strokeColor=#ff0000;rounded=0;entryX=0.5;entryY=0;entryDx=0;entryDy=0;exitX=0.5;exitY=1;exitDx=0;exitDy=0;" parent="1" source="3ijustOirOH9VtK2G7QW-56" target="3ijustOirOH9VtK2G7QW-94" edge="1">
          <mxGeometry relative="1" as="geometry">
            <mxPoint x="1340" y="1712" as="targetPoint" />
          </mxGeometry>
        </mxCell>
        <mxCell id="3ijustOirOH9VtK2G7QW-58" value="Values exist?" style="rhombus;whiteSpace=wrap;html=1;fontColor=#000000;fillColor=#ffffc0;strokeColor=#ff0000;" parent="1" vertex="1">
          <mxGeometry x="1190" y="1150" width="80" height="40" as="geometry" />
        </mxCell>
        <mxCell id="3ijustOirOH9VtK2G7QW-59" value="no" style="edgeStyle=orthogonalEdgeStyle;html=1;align=left;verticalAlign=bottom;endArrow=open;endSize=8;strokeColor=#ff0000;rounded=0;entryX=0.5;entryY=1;entryDx=0;entryDy=0;" parent="1" source="3ijustOirOH9VtK2G7QW-58" target="3ijustOirOH9VtK2G7QW-89" edge="1">
          <mxGeometry x="-1" relative="1" as="geometry">
            <mxPoint x="1620" y="1596" as="targetPoint" />
          </mxGeometry>
        </mxCell>
        <mxCell id="3ijustOirOH9VtK2G7QW-60" value="yes" style="edgeStyle=orthogonalEdgeStyle;html=1;align=left;verticalAlign=top;endArrow=open;endSize=8;strokeColor=#ff0000;rounded=0;entryX=0.5;entryY=0;entryDx=0;entryDy=0;" parent="1" source="3ijustOirOH9VtK2G7QW-58" target="3ijustOirOH9VtK2G7QW-56" edge="1">
          <mxGeometry x="-1" relative="1" as="geometry">
            <mxPoint x="1450" y="1751" as="targetPoint" />
            <Array as="points">
              <mxPoint x="1230" y="1280" />
              <mxPoint x="1230" y="1280" />
            </Array>
          </mxGeometry>
        </mxCell>
        <mxCell id="3ijustOirOH9VtK2G7QW-63" value="Document medium" style="rhombus;whiteSpace=wrap;html=1;fontColor=#000000;fillColor=#ffffc0;strokeColor=#ff0000;" parent="1" vertex="1">
          <mxGeometry x="191" y="935" width="100" height="40" as="geometry" />
        </mxCell>
        <mxCell id="3ijustOirOH9VtK2G7QW-64" value="letter" style="edgeStyle=orthogonalEdgeStyle;html=1;align=left;verticalAlign=bottom;endArrow=open;endSize=8;strokeColor=#ff0000;rounded=0;entryX=0.5;entryY=0;entryDx=0;entryDy=0;" parent="1" source="3ijustOirOH9VtK2G7QW-63" target="3ijustOirOH9VtK2G7QW-80" edge="1">
          <mxGeometry x="-1" relative="1" as="geometry">
            <mxPoint x="705" y="935" as="targetPoint" />
          </mxGeometry>
        </mxCell>
        <mxCell id="3ijustOirOH9VtK2G7QW-65" value="email" style="edgeStyle=orthogonalEdgeStyle;html=1;align=left;verticalAlign=top;endArrow=open;endSize=8;strokeColor=#ff0000;rounded=0;entryX=0.5;entryY=0;entryDx=0;entryDy=0;exitX=0;exitY=0.5;exitDx=0;exitDy=0;" parent="1" source="3ijustOirOH9VtK2G7QW-63" target="3ijustOirOH9VtK2G7QW-70" edge="1">
          <mxGeometry x="-0.7427" relative="1" as="geometry">
            <mxPoint x="410" y="995" as="targetPoint" />
            <mxPoint as="offset" />
          </mxGeometry>
        </mxCell>
        <mxCell id="3ijustOirOH9VtK2G7QW-66" value="Set recipient address" style="rounded=1;whiteSpace=wrap;html=1;arcSize=40;fontColor=#000000;fillColor=#ffffc0;strokeColor=#ff0000;" parent="1" vertex="1">
          <mxGeometry x="690" y="825" width="120" height="40" as="geometry" />
        </mxCell>
        <mxCell id="3ijustOirOH9VtK2G7QW-67" value="" style="edgeStyle=orthogonalEdgeStyle;html=1;verticalAlign=bottom;endArrow=open;endSize=8;strokeColor=#ff0000;rounded=0;" parent="1" source="3ijustOirOH9VtK2G7QW-66" target="3ijustOirOH9VtK2G7QW-68" edge="1">
          <mxGeometry relative="1" as="geometry">
            <mxPoint x="490" y="1212" as="targetPoint" />
          </mxGeometry>
        </mxCell>
        <mxCell id="3ijustOirOH9VtK2G7QW-68" value="Set recipient name" style="rounded=1;whiteSpace=wrap;html=1;arcSize=40;fontColor=#000000;fillColor=#ffffc0;strokeColor=#ff0000;" parent="1" vertex="1">
          <mxGeometry x="518" y="825" width="120" height="40" as="geometry" />
        </mxCell>
        <mxCell id="3ijustOirOH9VtK2G7QW-69" value="" style="edgeStyle=orthogonalEdgeStyle;html=1;verticalAlign=bottom;endArrow=open;endSize=8;strokeColor=#ff0000;rounded=0;entryX=1;entryY=0.5;entryDx=0;entryDy=0;" parent="1" source="3ijustOirOH9VtK2G7QW-68" target="3ijustOirOH9VtK2G7QW-84" edge="1">
          <mxGeometry relative="1" as="geometry">
            <mxPoint x="730" y="1227" as="targetPoint" />
          </mxGeometry>
        </mxCell>
        <mxCell id="3ijustOirOH9VtK2G7QW-70" value="Set cc" style="rounded=1;whiteSpace=wrap;html=1;arcSize=40;fontColor=#000000;fillColor=#ffffc0;strokeColor=#ff0000;" parent="1" vertex="1">
          <mxGeometry y="1065" width="120" height="40" as="geometry" />
        </mxCell>
        <mxCell id="3ijustOirOH9VtK2G7QW-71" value="" style="edgeStyle=orthogonalEdgeStyle;html=1;verticalAlign=bottom;endArrow=open;endSize=8;strokeColor=#ff0000;rounded=0;entryX=0.5;entryY=0;entryDx=0;entryDy=0;" parent="1" source="3ijustOirOH9VtK2G7QW-70" target="3ijustOirOH9VtK2G7QW-72" edge="1">
          <mxGeometry relative="1" as="geometry">
            <mxPoint x="60" y="1165" as="targetPoint" />
          </mxGeometry>
        </mxCell>
        <mxCell id="3ijustOirOH9VtK2G7QW-72" value="Set subject" style="rounded=1;whiteSpace=wrap;html=1;arcSize=40;fontColor=#000000;fillColor=#ffffc0;strokeColor=#ff0000;" parent="1" vertex="1">
          <mxGeometry y="1125" width="120" height="40" as="geometry" />
        </mxCell>
        <mxCell id="3ijustOirOH9VtK2G7QW-73" value="" style="edgeStyle=orthogonalEdgeStyle;html=1;verticalAlign=bottom;endArrow=open;endSize=8;strokeColor=#ff0000;rounded=0;entryX=0.25;entryY=0.5;entryDx=0;entryDy=0;entryPerimeter=0;" parent="1" source="3ijustOirOH9VtK2G7QW-72" target="3ijustOirOH9VtK2G7QW-76" edge="1">
          <mxGeometry relative="1" as="geometry">
            <mxPoint x="410" y="1145" as="targetPoint" />
          </mxGeometry>
        </mxCell>
        <mxCell id="3ijustOirOH9VtK2G7QW-76" value="" style="shape=line;html=1;strokeWidth=6;strokeColor=#ff0000;rotation=-90;" parent="1" vertex="1">
          <mxGeometry x="800" y="1165" width="200" height="10" as="geometry" />
        </mxCell>
        <mxCell id="3ijustOirOH9VtK2G7QW-77" value="" style="edgeStyle=orthogonalEdgeStyle;html=1;verticalAlign=bottom;endArrow=open;endSize=8;strokeColor=#ff0000;rounded=0;" parent="1" source="3ijustOirOH9VtK2G7QW-76" target="3ijustOirOH9VtK2G7QW-54" edge="1">
          <mxGeometry relative="1" as="geometry">
            <mxPoint x="490" y="1681" as="targetPoint" />
          </mxGeometry>
        </mxCell>
        <mxCell id="3ijustOirOH9VtK2G7QW-78" value="Set protection" style="rounded=1;whiteSpace=wrap;html=1;arcSize=40;fontColor=#000000;fillColor=#ffffc0;strokeColor=#ff0000;" parent="1" vertex="1">
          <mxGeometry x="590" y="1035" width="120" height="40" as="geometry" />
        </mxCell>
        <mxCell id="3ijustOirOH9VtK2G7QW-79" value="" style="edgeStyle=orthogonalEdgeStyle;html=1;verticalAlign=bottom;endArrow=open;endSize=8;strokeColor=#ff0000;rounded=0;entryX=0.5;entryY=0;entryDx=0;entryDy=0;" parent="1" source="3ijustOirOH9VtK2G7QW-78" target="3ijustOirOH9VtK2G7QW-82" edge="1">
          <mxGeometry relative="1" as="geometry">
            <mxPoint x="700" y="1135" as="targetPoint" />
            <Array as="points" />
          </mxGeometry>
        </mxCell>
        <mxCell id="3ijustOirOH9VtK2G7QW-80" value="Set sent date" style="rounded=1;whiteSpace=wrap;html=1;arcSize=40;fontColor=#000000;fillColor=#ffffc0;strokeColor=#ff0000;" parent="1" vertex="1">
          <mxGeometry x="590" y="975" width="120" height="40" as="geometry" />
        </mxCell>
        <mxCell id="3ijustOirOH9VtK2G7QW-81" value="" style="edgeStyle=orthogonalEdgeStyle;html=1;verticalAlign=bottom;endArrow=open;endSize=8;strokeColor=#ff0000;rounded=0;entryX=0.5;entryY=0;entryDx=0;entryDy=0;" parent="1" source="3ijustOirOH9VtK2G7QW-80" target="3ijustOirOH9VtK2G7QW-78" edge="1">
          <mxGeometry relative="1" as="geometry">
            <mxPoint x="650" y="1075" as="targetPoint" />
          </mxGeometry>
        </mxCell>
        <mxCell id="3ijustOirOH9VtK2G7QW-82" value="Set valediction" style="rounded=1;whiteSpace=wrap;html=1;arcSize=40;fontColor=#000000;fillColor=#ffffc0;strokeColor=#ff0000;" parent="1" vertex="1">
          <mxGeometry x="590" y="1110" width="120" height="40" as="geometry" />
        </mxCell>
        <mxCell id="3ijustOirOH9VtK2G7QW-83" value="" style="edgeStyle=orthogonalEdgeStyle;html=1;verticalAlign=bottom;endArrow=open;endSize=8;strokeColor=#ff0000;rounded=0;entryX=0.75;entryY=0.5;entryDx=0;entryDy=0;entryPerimeter=0;exitX=0.5;exitY=1;exitDx=0;exitDy=0;" parent="1" source="3ijustOirOH9VtK2G7QW-82" target="3ijustOirOH9VtK2G7QW-76" edge="1">
          <mxGeometry relative="1" as="geometry">
            <mxPoint x="650" y="1295" as="targetPoint" />
          </mxGeometry>
        </mxCell>
        <mxCell id="3ijustOirOH9VtK2G7QW-84" value="Set sender address" style="rounded=1;whiteSpace=wrap;html=1;arcSize=40;fontColor=#000000;fillColor=#ffffc0;strokeColor=#ff0000;" parent="1" vertex="1">
          <mxGeometry x="350" y="825" width="120" height="40" as="geometry" />
        </mxCell>
        <mxCell id="3ijustOirOH9VtK2G7QW-85" value="" style="edgeStyle=orthogonalEdgeStyle;html=1;verticalAlign=bottom;endArrow=open;endSize=8;strokeColor=#ff0000;rounded=0;entryX=1;entryY=0.5;entryDx=0;entryDy=0;" parent="1" source="3ijustOirOH9VtK2G7QW-84" target="3ijustOirOH9VtK2G7QW-86" edge="1">
          <mxGeometry relative="1" as="geometry">
            <mxPoint x="210" y="1461" as="targetPoint" />
          </mxGeometry>
        </mxCell>
        <mxCell id="3ijustOirOH9VtK2G7QW-86" value="Set sender name" style="rounded=1;whiteSpace=wrap;html=1;arcSize=40;fontColor=#000000;fillColor=#ffffc0;strokeColor=#ff0000;" parent="1" vertex="1">
          <mxGeometry x="181" y="825" width="120" height="40" as="geometry" />
        </mxCell>
        <mxCell id="3ijustOirOH9VtK2G7QW-87" value="" style="edgeStyle=orthogonalEdgeStyle;html=1;verticalAlign=bottom;endArrow=open;endSize=8;strokeColor=#ff0000;rounded=0;entryX=0.5;entryY=0;entryDx=0;entryDy=0;exitX=0.5;exitY=1;exitDx=0;exitDy=0;" parent="1" source="3ijustOirOH9VtK2G7QW-86" target="3ijustOirOH9VtK2G7QW-63" edge="1">
          <mxGeometry relative="1" as="geometry">
            <mxPoint x="196" y="1602" as="targetPoint" />
          </mxGeometry>
        </mxCell>
        <mxCell id="5_UrbAzmr4gprbTqflTs-2" style="edgeStyle=orthogonalEdgeStyle;rounded=0;orthogonalLoop=1;jettySize=auto;html=1;entryX=0.5;entryY=1;entryDx=0;entryDy=0;strokeColor=#FF0000;" edge="1" parent="1" source="3ijustOirOH9VtK2G7QW-88" target="3ijustOirOH9VtK2G7QW-25">
          <mxGeometry relative="1" as="geometry">
            <mxPoint x="890" y="780" as="targetPoint" />
          </mxGeometry>
        </mxCell>
        <mxCell id="3ijustOirOH9VtK2G7QW-88" value="Status code" style="swimlane;fontStyle=1;align=center;verticalAlign=middle;childLayout=stackLayout;horizontal=1;startSize=30;horizontalStack=0;resizeParent=0;resizeLast=1;container=0;fontColor=#000000;collapsible=0;rounded=1;arcSize=30;strokeColor=#ff0000;fillColor=#ffffc0;swimlaneFillColor=#ffffc0;dropTarget=0;" parent="1" vertex="1">
          <mxGeometry x="1150" y="985" width="160" height="60" as="geometry" />
        </mxCell>
        <mxCell id="3ijustOirOH9VtK2G7QW-89" value="404" style="text;html=1;strokeColor=none;fillColor=none;align=center;verticalAlign=middle;spacingLeft=4;spacingRight=4;whiteSpace=wrap;overflow=hidden;rotatable=0;fontColor=#000000;" parent="3ijustOirOH9VtK2G7QW-88" vertex="1">
          <mxGeometry y="30" width="160" height="30" as="geometry" />
        </mxCell>
        <mxCell id="3ijustOirOH9VtK2G7QW-94" value="Set body = template" style="rounded=1;whiteSpace=wrap;html=1;arcSize=40;fontColor=#000000;fillColor=#ffffc0;strokeColor=#ff0000;" parent="1" vertex="1">
          <mxGeometry x="1170" y="1390" width="120" height="40" as="geometry" />
        </mxCell>
        <mxCell id="3ijustOirOH9VtK2G7QW-95" value="" style="edgeStyle=orthogonalEdgeStyle;html=1;verticalAlign=bottom;endArrow=open;endSize=8;strokeColor=#ff0000;rounded=0;entryX=1;entryY=0.5;entryDx=0;entryDy=0;" parent="1" source="3ijustOirOH9VtK2G7QW-94" target="3ijustOirOH9VtK2G7QW-102" edge="1">
          <mxGeometry relative="1" as="geometry">
            <mxPoint x="1340" y="1793" as="targetPoint" />
          </mxGeometry>
        </mxCell>
        <mxCell id="3ijustOirOH9VtK2G7QW-102" value="Return new DTO" style="rounded=1;whiteSpace=wrap;html=1;arcSize=40;fontColor=#000000;fillColor=#ffffc0;strokeColor=#ff0000;" parent="1" vertex="1">
          <mxGeometry x="920" y="1390" width="120" height="40" as="geometry" />
        </mxCell>
        <mxCell id="3ijustOirOH9VtK2G7QW-103" value="" style="edgeStyle=orthogonalEdgeStyle;html=1;verticalAlign=bottom;endArrow=open;endSize=8;strokeColor=#ff0000;rounded=0;entryX=1;entryY=0.5;entryDx=0;entryDy=0;" parent="1" source="3ijustOirOH9VtK2G7QW-102" target="3ijustOirOH9VtK2G7QW-104" edge="1">
          <mxGeometry relative="1" as="geometry">
            <mxPoint x="1561" y="1360" as="targetPoint" />
            <Array as="points">
              <mxPoint x="900" y="1410" />
              <mxPoint x="900" y="1410" />
            </Array>
          </mxGeometry>
        </mxCell>
        <mxCell id="3ijustOirOH9VtK2G7QW-104" value="Render" style="rhombus;whiteSpace=wrap;html=1;fontColor=#000000;fillColor=#ffffc0;strokeColor=#ff0000;" parent="1" vertex="1">
          <mxGeometry x="740" y="1390" width="80" height="40" as="geometry" />
        </mxCell>
        <mxCell id="3ijustOirOH9VtK2G7QW-105" value="false" style="edgeStyle=orthogonalEdgeStyle;html=1;align=left;verticalAlign=bottom;endArrow=open;endSize=8;strokeColor=#ff0000;rounded=0;" parent="1" source="3ijustOirOH9VtK2G7QW-104" target="3ijustOirOH9VtK2G7QW-108" edge="1">
          <mxGeometry x="-1" relative="1" as="geometry">
            <mxPoint x="396" y="1631" as="targetPoint" />
          </mxGeometry>
        </mxCell>
        <mxCell id="3ijustOirOH9VtK2G7QW-106" value="true" style="edgeStyle=orthogonalEdgeStyle;html=1;align=left;verticalAlign=top;endArrow=open;endSize=8;strokeColor=#ff0000;rounded=0;entryX=0.5;entryY=0;entryDx=0;entryDy=0;" parent="1" source="3ijustOirOH9VtK2G7QW-104" target="3ijustOirOH9VtK2G7QW-115" edge="1">
          <mxGeometry x="-1" relative="1" as="geometry">
            <mxPoint x="96" y="1721" as="targetPoint" />
          </mxGeometry>
        </mxCell>
        <mxCell id="3ijustOirOH9VtK2G7QW-107" value="front-end" style="shape=umlFrame;whiteSpace=wrap;html=1;pointerEvents=0;" parent="1" vertex="1">
          <mxGeometry x="-224" y="1450" width="554" height="100" as="geometry" />
        </mxCell>
        <mxCell id="3ijustOirOH9VtK2G7QW-108" value="Present DTO" style="rounded=1;whiteSpace=wrap;html=1;arcSize=40;fontColor=#000000;fillColor=#ffffc0;strokeColor=#ff0000;" parent="1" vertex="1">
          <mxGeometry x="720" y="1490" width="120" height="40" as="geometry" />
        </mxCell>
        <mxCell id="3ijustOirOH9VtK2G7QW-109" value="" style="edgeStyle=orthogonalEdgeStyle;html=1;verticalAlign=bottom;endArrow=open;endSize=8;strokeColor=#ff0000;rounded=0;" parent="1" source="3ijustOirOH9VtK2G7QW-108" target="3ijustOirOH9VtK2G7QW-110" edge="1">
          <mxGeometry relative="1" as="geometry">
            <mxPoint x="96" y="1821" as="targetPoint" />
            <Array as="points">
              <mxPoint x="780" y="1670" />
              <mxPoint x="780" y="1670" />
            </Array>
          </mxGeometry>
        </mxCell>
        <mxCell id="3ijustOirOH9VtK2G7QW-110" value="Status code" style="swimlane;fontStyle=1;align=center;verticalAlign=middle;childLayout=stackLayout;horizontal=1;startSize=30;horizontalStack=0;resizeParent=0;resizeLast=1;container=0;fontColor=#000000;collapsible=0;rounded=1;arcSize=30;strokeColor=#ff0000;fillColor=#ffffc0;swimlaneFillColor=#ffffc0;dropTarget=0;" parent="1" vertex="1">
          <mxGeometry x="700" y="1660" width="160" height="60" as="geometry" />
        </mxCell>
        <mxCell id="3ijustOirOH9VtK2G7QW-111" value="200" style="text;html=1;strokeColor=none;fillColor=none;align=center;verticalAlign=middle;spacingLeft=4;spacingRight=4;whiteSpace=wrap;overflow=hidden;rotatable=0;fontColor=#000000;" parent="3ijustOirOH9VtK2G7QW-110" vertex="1">
          <mxGeometry y="30" width="160" height="30" as="geometry" />
        </mxCell>
        <mxCell id="3ijustOirOH9VtK2G7QW-112" value="" style="edgeStyle=orthogonalEdgeStyle;html=1;verticalAlign=bottom;endArrow=open;endSize=8;strokeColor=#ff0000;rounded=0;entryX=0.5;entryY=0;entryDx=0;entryDy=0;exitX=0.5;exitY=1;exitDx=0;exitDy=0;" parent="1" source="3ijustOirOH9VtK2G7QW-111" target="3ijustOirOH9VtK2G7QW-113" edge="1">
          <mxGeometry relative="1" as="geometry">
            <mxPoint x="296" y="1931" as="targetPoint" />
          </mxGeometry>
        </mxCell>
        <mxCell id="3ijustOirOH9VtK2G7QW-113" value="" style="ellipse;html=1;shape=endState;fillColor=#000000;strokeColor=#ff0000;" parent="1" vertex="1">
          <mxGeometry x="764" y="1820" width="30" height="30" as="geometry" />
        </mxCell>
        <mxCell id="3ijustOirOH9VtK2G7QW-114" value="front-end" style="shape=umlFrame;whiteSpace=wrap;html=1;pointerEvents=0;" parent="1" vertex="1">
          <mxGeometry y="147" width="230" height="200" as="geometry" />
        </mxCell>
        <mxCell id="3ijustOirOH9VtK2G7QW-115" value="Extract JSON information" style="rounded=1;whiteSpace=wrap;html=1;arcSize=40;fontColor=#000000;fillColor=#ffffc0;strokeColor=#ff0000;" parent="1" vertex="1">
          <mxGeometry x="-210" y="1490" width="120" height="40" as="geometry" />
        </mxCell>
        <mxCell id="3ijustOirOH9VtK2G7QW-116" value="" style="edgeStyle=orthogonalEdgeStyle;html=1;verticalAlign=bottom;endArrow=open;endSize=8;strokeColor=#ff0000;rounded=0;entryX=0;entryY=0;entryDx=0;entryDy=0;exitX=1;exitY=0.5;exitDx=0;exitDy=0;" parent="1" source="3ijustOirOH9VtK2G7QW-115" target="3ijustOirOH9VtK2G7QW-120" edge="1">
          <mxGeometry relative="1" as="geometry">
            <mxPoint x="105" y="1677" as="targetPoint" />
            <Array as="points">
              <mxPoint x="-60" y="1510" />
              <mxPoint x="-60" y="1510" />
            </Array>
          </mxGeometry>
        </mxCell>
        <mxCell id="3ijustOirOH9VtK2G7QW-117" value="Return document" style="rounded=1;whiteSpace=wrap;html=1;arcSize=40;fontColor=#000000;fillColor=#ffffc0;strokeColor=#ff0000;" parent="1" vertex="1">
          <mxGeometry x="150" y="1490" width="120" height="40" as="geometry" />
        </mxCell>
        <mxCell id="3ijustOirOH9VtK2G7QW-118" value="" style="edgeStyle=orthogonalEdgeStyle;html=1;verticalAlign=bottom;endArrow=open;endSize=8;strokeColor=#ff0000;rounded=0;entryX=0;entryY=0.5;entryDx=0;entryDy=0;exitX=0.5;exitY=1;exitDx=0;exitDy=0;" parent="1" source="3ijustOirOH9VtK2G7QW-117" target="3ijustOirOH9VtK2G7QW-113" edge="1">
          <mxGeometry relative="1" as="geometry">
            <mxPoint x="76" y="1850" as="targetPoint" />
          </mxGeometry>
        </mxCell>
        <mxCell id="3ijustOirOH9VtK2G7QW-119" value="Render into medium" style="swimlane;fontStyle=1;align=center;verticalAlign=middle;childLayout=stackLayout;horizontal=1;startSize=30;horizontalStack=0;resizeParent=0;resizeLast=1;container=0;fontColor=#000000;collapsible=0;rounded=1;arcSize=30;strokeColor=#ff0000;fillColor=#ffffc0;swimlaneFillColor=#ffffc0;dropTarget=0;" parent="1" vertex="1">
          <mxGeometry x="-40" y="1480" width="160" height="60" as="geometry" />
        </mxCell>
        <mxCell id="3ijustOirOH9VtK2G7QW-120" value="Document medium" style="text;html=1;strokeColor=none;fillColor=none;align=center;verticalAlign=middle;spacingLeft=4;spacingRight=4;whiteSpace=wrap;overflow=hidden;rotatable=0;fontColor=#000000;" parent="3ijustOirOH9VtK2G7QW-119" vertex="1">
          <mxGeometry y="30" width="160" height="30" as="geometry" />
        </mxCell>
        <mxCell id="3ijustOirOH9VtK2G7QW-121" value="" style="edgeStyle=orthogonalEdgeStyle;html=1;verticalAlign=bottom;endArrow=open;endSize=8;strokeColor=#ff0000;rounded=0;entryX=0;entryY=0.5;entryDx=0;entryDy=0;" parent="1" source="3ijustOirOH9VtK2G7QW-119" target="3ijustOirOH9VtK2G7QW-117" edge="1">
          <mxGeometry relative="1" as="geometry">
            <mxPoint x="-145" y="1727" as="targetPoint" />
          </mxGeometry>
        </mxCell>
      </root>
    </mxGraphModel>
  </diagram>
</mxfile>
